# xmcd
#
# Track frame offsets: 
#        150
#        22973
#        35868
#        53273
#        75314
#        95656
#        114415
#        131013
#        147837
#        171230
#        189472
#        207738
#        226707
#
# Disc length: 3258 seconds
#
# Revision: 0
# Processed by: cddbd v1.5.2PL0 Copyright (c) Steve Scherf et al.
# Submitted via: ExactAudioCopy v0.95b4
#
DISCID=a80cb80d
DTITLE=Vince Gill - These Days - CD 2
DYEAR=2006
DGENRE=Country
TTITLE0=What You Don't Say - (featuring LeAnn Rimes)
TTITLE1=The Reason Why (featuring Alison Krauss)
TTITLE2=The Rock Of Your Love (featuring Bonnie Raitt)
TTITLE3=What You Give Away (featuring Sheryl Crow)
TTITLE4=Faint Of Heart (Duet With Diana Krall)
TTITLE5=Time To Carry On (Feat. Jenny Gill)
TTITLE6=No Easy Way
TTITLE7=This Memory Of You (featuring Trisha Yearwood)
TTITLE8=How Lonely Looks
TTITLE9=Tell Me One More Time About Jesus - (featuring Amy Grant)
TTITLE10=Everything And Nothing - (featuring Katrina Elam)
TTITLE11=Which Way Will You Go
TTITLE12=These Days
EXTD=
EXTT0=
EXTT1=
EXTT2=
EXTT3=
EXTT4=
EXTT5=
EXTT6=
EXTT7=
EXTT8=
EXTT9=
EXTT10=
EXTT11=
EXTT12=
PLAYORDER=
